<svg id="图层_1" data-name="图层 1" xmlns="http://www.w3.org/2000/svg" viewBox="0 0 1209.69 539.92"><defs><style>.cls-1{fill:#4f4398;}.cls-2{fill:#c9caca;}</style></defs><path class="cls-1" d="M732.94,318.21h88.95C762,395.69,647.55,452.6,540.43,452.6c-84,0-142.72-35-161.24-87.53,20.73,34.54,65.6,56.69,126.42,56.69C590.86,421.76,681.73,378.39,732.94,318.21Z"/><path class="cls-1" d="M634.87,118.08c-60.89,0-124.56,22.15-174.7,56.69,63.17-52.48,151.69-87.45,235.73-87.45,102,0,166.65,51.56,167.44,123.28h-90C767.12,156.26,714.78,118.08,634.87,118.08Z"/><path class="cls-2" d="M554.25,378.46c43.51,0,89-15.81,124.85-40.52-45.16,37.53-108.4,62.53-168.51,62.53-70.08,0-115.52-34.05-119.36-82.26h64.95C463.52,354,500.05,378.46,554.25,378.46Z"/><path class="cls-2" d="M737,201.91c-14.82-24.71-46.87-40.52-90.38-40.52-48.43,0-99.35,19.58-136.6,49.21H443.43c45.51-42.31,113.74-71.22,178.26-71.22C681.8,139.38,723.75,164.45,737,201.91Z"/><path class="cls-1" d="M318.63,306.56H298.71V224h19.92Z"/><path class="cls-1" d="M429.29,306.56H409.37V254.19L379.05,296l-30.33-41.84v52.37H328.8V224h21.76L379,263.17,407.54,224h21.75Z"/><path class="cls-1" d="M489.68,308.79a55.87,55.87,0,0,1-25.21-5.66,47.31,47.31,0,0,1-18.2-15.51,40.13,40.13,0,0,1,0-44.73,47.2,47.2,0,0,1,18.2-15.5,58.95,58.95,0,0,1,50.45,0,47.22,47.22,0,0,1,18.23,15.5,40.13,40.13,0,0,1,0,44.73,47.33,47.33,0,0,1-18.23,15.51A56.06,56.06,0,0,1,489.68,308.79Zm0-19.06a38.27,38.27,0,0,0,15-2.9,26.71,26.71,0,0,0,11.16-8.36,22.8,22.8,0,0,0,0-26.43,26.8,26.8,0,0,0-11.16-8.36,38.45,38.45,0,0,0-15-2.9,37.69,37.69,0,0,0-14.92,2.95,27.18,27.18,0,0,0-11.15,8.41,22.57,22.57,0,0,0,0,26.28,27.06,27.06,0,0,0,11.15,8.39A38,38,0,0,0,489.68,289.73Z"/><path class="cls-1" d="M717.16,306.56H643.5V224h73.66v17.69H663.43v14.8h53.73v17.68H663.43v14.75h53.73Z"/><path class="cls-2" d="M827.56,308.79a55.87,55.87,0,0,1-25.21-5.66,47.31,47.31,0,0,1-18.2-15.51,40.13,40.13,0,0,1,0-44.73,47.2,47.2,0,0,1,18.2-15.5,58.95,58.95,0,0,1,50.45,0A47.12,47.12,0,0,1,871,242.89a40.08,40.08,0,0,1,0,44.73,47.23,47.23,0,0,1-18.22,15.51A56.06,56.06,0,0,1,827.56,308.79Zm0-19.06a38.27,38.27,0,0,0,15-2.9,26.71,26.71,0,0,0,11.16-8.36,22.8,22.8,0,0,0,0-26.43,26.8,26.8,0,0,0-11.16-8.36,38.45,38.45,0,0,0-15-2.9,37.69,37.69,0,0,0-14.92,2.95,27.18,27.18,0,0,0-11.15,8.41,22.57,22.57,0,0,0,0,26.28,27.06,27.06,0,0,0,11.15,8.39A38,38,0,0,0,827.56,289.73Z"/><path class="cls-2" d="M936.61,308.79q-15.4,0-27.14-5.66a45.37,45.37,0,0,1-18.38-15.51,41,41,0,0,1,0-44.7,45.19,45.19,0,0,1,18.38-15.53q11.74-5.67,27.14-5.67a57.76,57.76,0,0,1,21.15,4.37,48.23,48.23,0,0,1,18,11.79l-13.06,14.49a31.19,31.19,0,0,0-11.87-8.44,39.1,39.1,0,0,0-15.48-3.15,40.81,40.81,0,0,0-16,2.95,25.71,25.71,0,0,0-11,8.38,21.56,21.56,0,0,0-4,13.17,20.91,20.91,0,0,0,4.2,13.14,26.71,26.71,0,0,0,11.26,8.39,40.25,40.25,0,0,0,15.55,2.92,33.91,33.91,0,0,0,14.54-3.13q6.71-3.12,9.51-7.54H939.57V261.37h40.91v45.19H960.55v-4Q951.55,308.8,936.61,308.79Z"/><path class="cls-2" d="M1034.91,306.56H1015V265.69L973.25,224h25.26L1025,249.32,1051.38,224h25.21l-41.68,41.74Z"/><polygon class="cls-1" points="225.45 180.3 196.17 180.3 133.1 306.51 165.65 306.51 178.93 279.17 178.94 279.17 192.08 252.14 192.05 252.14 210.84 213.54 256.05 306.51 288.59 306.51 225.45 180.3"/><path class="cls-1" d="M188.69,306.64s-2.58-26.67,18.42-43.91c0,0-29,6.25-57.94,43.77Z"/><path class="cls-1" d="M233,306.64s2.58-26.67-18.42-43.91c0,0,29,6.25,57.95,43.77Z"/><path class="cls-1" d="M614.78,276.41A24.37,24.37,0,0,0,625.17,267a27.61,27.61,0,0,0,4.15-15.1,28.74,28.74,0,0,0-3.56-14.38,25.48,25.48,0,0,0-10.09-9.92A31.51,31.51,0,0,0,600.24,224H537.6l12.52,17.69h50.12a9,9,0,0,1,6.38,2.65q2.77,2.64,2.77,7.57c0,3.26-.86,5.76-2.57,7.52a8.74,8.74,0,0,1-6.58,2.65H570.05V251.9H550.12v54.66h19.93V279.72H594.5l16,26.84h22.82Z"/><path class="cls-2" d="M775,288.87H747.25V224H727.32v82.61h66.29A44.13,44.13,0,0,1,775,288.87Z"/></svg>
